<svg width="512" height="512" xmlns:xlink="http://www.w3.org/1999/xlink" xmlns="http://www.w3.org/2000/svg" viewBox="0 0 512 512">
  <defs>
    <symbol id="state-flagged" viewBox="0 0 512 512">
      <path d="M.795 0H512.77v512H.795z" stroke-width="1.004" fill="#ccc" />
      <path d="M512 0l-31.938 32-448-.063L32 480 0 512V0z" fill="#fff" />
      <path d="M0 512h512V0l-32.063 32L480 480l-448-.063z" fill="#666" />
      <g>
        <path d="M98.995 134.35h72.125v-25.456l84.88-.707V77.782h79.169V251.73H256v-31.82h-85.587v-25.456h-70.71z"
          fill="red" transform="translate(-5.63 -7.397)" />
        <path d="M335.169 251.73h-31.82v91.924h31.82z" fill="#500" transform="translate(-5.63 -7.397)" />
        <path d="M149.2 340.118h228.395v41.013h71.418v67.882H74.246v-69.297h75.66z" fill="#333"
          transform="translate(-5.63 -7.397)" />
      </g>
    </symbol>
    <symbol id="state-covered"  viewBox="0 0 512 512">
      <path d="M.795 0H512.77v512H.795z" stroke-width="1.004" fill="#ccc" />
      <path d="M512 0l-31.938 32-448-.063L32 480 0 512V0z" fill="#fff" />
      <path d="M0 512h512V0l-32.063 32L480 480l-448-.063z" fill="#666" />
    </symbol>
    <symbol id="value-0"  viewBox="0 0 512 512">
      <path d="M0 0h512v512H0z" fill="#b3b3b3" />
    </symbol>
    <symbol id="value-1"  viewBox="0 0 512 512">
      <path d="M0 0h512v512H0z" fill="#b3b3b3" />
      <path
        d="M408.585 384.84v70.988H140.968V384.84h99.205V136.529l-84.651 52.87-39.801-64.454 132.769-80.79h83.166V384.84z"
        transform="scale(.97653 1.02404)" font-weight="700" font-size="579.194" font-family="Fira Code" fill="#00f"
        stroke-width="48.266" />
    </symbol>
    <symbol id="value-2"  viewBox="0 0 512 512">
      <path d="M0 0h512v512H0z" fill="#b3b3b3" />
      <path
        d="M256.658 38.957q46.93 0 78.414 16.336 31.781 16.336 47.524 43.365 16.039 26.732 16.039 58.217 0 24.95-8.614 49.009-8.316 23.761-27.623 50.493-19.306 26.435-51.385 58.81-31.781 32.376-78.71 74.257H408.14l-10.1 71.582H124.484v-66.533q50.79-49.009 84.948-84.354 34.455-35.346 54.95-60.89 20.791-25.841 29.702-45.742 8.91-19.9 8.91-38.315 0-24.95-14.554-39.504-14.257-14.555-40.692-14.555-23.464 0-40.692 9.802-17.227 9.802-33.266 31.782l-57.623-43.366q23.168-32.078 57.029-51.088 33.86-19.306 83.463-19.306z"
        transform="scale(.97653 1.02404)" font-weight="700" font-size="579.194" font-family="Fira Code" fill="green"
        stroke-width="48.266" />
    </symbol>
    <symbol id="value-3"  viewBox="0 0 512 512">
      <path d="M0 0h512v512H0z" fill="#b3b3b3" />
      <path
        d="M260.965 33.908q44.553 0 75.74 14.554 31.485 14.257 47.821 38.316 16.634 23.761 16.634 52.573 0 39.207-23.168 63.562-22.871 24.06-60.89 35.049 42.474 5.643 69.8 29.108 27.327 23.168 27.327 73.068 0 34.751-19.307 63.266-19.01 28.514-54.652 45.741-35.643 16.93-85.246 16.93-46.038 0-82.572-16.039-36.534-16.336-62.375-45.741l52.87-49.306q17.822 20.494 39.504 30 21.98 9.207 46.336 9.207 30.593 0 49.9-15.445 19.306-15.742 19.306-45.148 0-32.672-18.415-46.93-18.119-14.553-51.385-14.553h-37.425l10.693-64.751h26.732q27.326 0 44.553-13.366 17.525-13.366 17.525-40.395 0-23.168-16.634-36.534-16.633-13.366-43.068-13.366-24.653 0-44.85 9.505-19.9 9.504-37.425 26.138l-48.118-49.9q28.217-27.326 63.266-41.286 35.049-14.257 77.523-14.257z"
        transform="scale(.97653 1.02404)" font-weight="700" font-size="579.194" font-family="Fira Code" fill="#d40000"
        stroke-width="48.266" />
    </symbol>
    <symbol id="value-4"  viewBox="0 0 512 512">
      <path d="M0 0h512v512H0z" fill="#b3b3b3" />
      <path
        d="M372.051 204.993v99.205h41.286v70.394h-41.286v86.434h-89.998l-.594-86.434H110.97v-62.374L225.321 38.957l79.9 29.405-97.424 235.836h73.958l10.99-99.205z"
        transform="scale(.97653 1.02404)" font-weight="700" font-size="579.194" font-family="Fira Code" fill="purple"
        stroke-width="48.266" />
    </symbol>
    <symbol id="value-5"  viewBox="0 0 512 512">
      <path d="M0 0h512v512H0z" fill="#b3b3b3" />
      <path
        d="M395.813 39.105l-10.396 67.128h-150.59v88.81q15.148-7.13 31.187-10.1 16.04-2.97 29.703-2.97 31.78 0 57.919 16.04 26.435 16.039 41.88 46.038 15.742 30 15.742 71.582 0 41.584-20.494 74.553-20.198 32.97-56.435 51.979-36.236 18.712-84.651 18.712-44.85 0-79.305-16.633-34.455-16.93-57.325-44.85l54.058-49.306q14.85 19.01 34.157 29.108 19.604 9.802 40.99 9.802 32.672 0 52.275-19.9 19.9-19.901 19.9-51.98 0-38.018-15.444-54.058-15.148-16.336-40.098-16.336-11.287 0-24.06 2.97-12.771 2.97-26.434 10.693h-63.266V39.105z"
        transform="scale(.97653 1.02404)" font-weight="700" font-size="579.194" font-family="Fira Code" fill="#500"
        stroke-width="48.266" />
    </symbol>
    <symbol id="value-6"  viewBox="0 0 512 512">
      <path d="M0 0h512v512H0z" fill="#b3b3b3" />
      <path
        d="M290.964 33.908q27.326 0 49.603 7.128 22.574 7.129 39.8 19.307l-35.642 57.028q-11.88-8.614-25.544-12.475-13.366-4.158-26.435-4.158-33.563 0-56.434 29.999-22.574 30-26.138 86.73 18.415-19.306 41.286-28.217 23.168-9.207 45.148-9.207 32.078 0 58.216 16.039 26.138 15.742 41.583 46.335 15.445 30.297 15.445 73.959 0 41.286-17.821 75.444-17.821 33.86-50.79 54.058-32.673 20.197-77.524 20.197-40.989 0-70.097-15.445-29.108-15.742-47.524-42.771-18.415-27.326-27.029-62.672-8.613-35.643-8.613-75.444 0-69.503 21.385-122.67 21.683-53.167 61.484-83.166 40.098-30 95.641-30zm-18.712 210.886q-34.752 0-62.078 31.484.891 61.78 13.069 92.374 12.178 30.296 43.662 30.296 26.435 0 38.613-22.573 12.475-22.574 12.475-54.653 0-42.177-12.178-59.404-11.88-17.524-33.563-17.524z"
        transform="scale(.97653 1.02404)" font-weight="700" font-size="579.194" font-family="Fira Code" fill="teal"
        stroke-width="48.266" />
    </symbol>
    <symbol id="value-7"  viewBox="0 0 512 512">
      <path d="M0 0h512v512H0z" fill="#b3b3b3" />
      <path d="M240.619 460.58l-89.107-27.623 153.56-322.863H124.187V39.402H400.12v63.563z"
        transform="scale(.97653 1.02404)" font-weight="700" font-size="579.194" font-family="Fira Code" fill="#a80"
        stroke-width="48.266" />
    </symbol>
    <symbol id="value-8"  viewBox="0 0 512 512">
      <path d="M0 0h512v512H0z" fill="#b3b3b3" />
      <path
        d="M399.08 142.915q0 28.811-15.445 49.603-15.445 20.791-48.414 39.504 41.583 20.791 60.592 49.305 19.307 28.217 19.307 62.97 0 31.78-17.525 59.7-17.227 27.624-51.682 44.851-34.157 17.227-85.542 17.227-50.197 0-84.058-16.633-33.563-16.633-50.493-43.662-16.634-27.326-16.634-59.108 0-35.345 20.495-61.483 20.494-26.138 55.246-41.287-31.484-20.197-45.741-40.989-13.96-21.088-13.96-55.246 0-35.048 18.118-60.592 18.118-25.544 49.009-39.207 31.187-13.96 70.394-13.96 40.098 0 70.691 13.366 30.89 13.069 48.118 37.721 17.524 24.356 17.524 57.92zm-184.45 4.752q0 21.683 14.553 35.94 14.555 13.96 45.445 25.544 20.197-14.851 27.623-29.108 7.426-14.554 7.426-31.782 0-21.98-11.881-36.237-11.584-14.257-35.049-14.257-22.87 0-35.643 12.772-12.475 12.475-12.475 37.128zm106.63 196.035q0-20.494-8.316-33.266-8.02-12.772-25.247-21.98-17.227-9.505-45.148-19.307-18.118 11.584-28.81 29.406-10.694 17.821-10.694 42.474 0 25.544 14.852 41.88 15.148 16.04 44.85 16.04 30.593 0 44.553-16.337 13.96-16.633 13.96-38.91z"
        transform="scale(.97653 1.02404)" font-weight="700" font-size="579.194" font-family="Fira Code" fill="#37abc8"
        stroke-width="48.266" />
    </symbol>
    <symbol id="value-9">
      <path d="M0 0h512v512H0z" fill="#b3b3b3" />
      <path
        d="M466 242.875h-26.25V229.75h-28.47c-4.017-23.924-13.425-46.006-26.933-64.974l20.144-20.144-9.282-9.282 18.564-18.564-18.564-18.564-18.564 18.564-9.282-9.282-20.144 20.144c-18.974-13.508-41.055-22.916-64.974-26.932V72.25H269.12V46h-26.25v26.25h-13.12v28.47c-23.924 4.017-46.006 13.425-64.974 26.933l-20.144-20.144-9.282 9.282-18.564-18.564-18.564 18.564 18.564 18.564-9.282 9.282 20.144 20.144c-13.508 18.974-22.916 41.055-26.932 64.974H72.25v13.125H46v26.25h26.25v13.12h28.47c4.017 23.924 13.425 46.006 26.933 64.974l-20.144 20.144 9.282 9.282-18.564 18.564 18.564 18.564 18.564-18.564 9.282 9.282 20.144-20.144c18.974 13.508 41.055 22.916 64.974 26.933v28.465h13.125V466h26.25v-26.25h13.12v-28.47c23.924-4.017 46.006-13.425 64.974-26.933l20.144 20.144 9.282-9.282 18.564 18.564 18.564-18.564-18.564-18.564 9.282-9.282-20.144-20.144c13.508-18.974 22.916-41.055 26.933-64.974h28.465V269.12H466zM256 124.75V151c-57.897 0-105 47.103-105 105h-26.25c0-72.371 58.879-131.25 131.25-131.25z"
        stroke-width="5.25" />
    </symbol>
    <symbol id="state-exploded">
      <path d="M0 0h512v512H0z" fill="red" />
      <path
        d="M466 242.875h-26.25V229.75h-28.47c-4.017-23.924-13.425-46.006-26.933-64.974l20.144-20.144-9.282-9.282 18.564-18.564-18.564-18.564-18.564 18.564-9.282-9.282-20.144 20.144c-18.974-13.508-41.055-22.916-64.974-26.932V72.25H269.12V46h-26.25v26.25h-13.12v28.47c-23.924 4.017-46.006 13.425-64.974 26.933l-20.144-20.144-9.282 9.282-18.564-18.564-18.564 18.564 18.564 18.564-9.282 9.282 20.144 20.144c-13.508 18.974-22.916 41.055-26.932 64.974H72.25v13.125H46v26.25h26.25v13.12h28.47c4.017 23.924 13.425 46.006 26.933 64.974l-20.144 20.144 9.282 9.282-18.564 18.564 18.564 18.564 18.564-18.564 9.282 9.282 20.144-20.144c18.974 13.508 41.055 22.916 64.974 26.933v28.465h13.125V466h26.25v-26.25h13.12v-28.47c23.924-4.017 46.006-13.425 64.974-26.933l20.144 20.144 9.282-9.282 18.564 18.564 18.564-18.564-18.564-18.564 9.282-9.282-20.144-20.144c13.508-18.974 22.916-41.055 26.933-64.974h28.465V269.12H466zM256 124.75V151c-57.897 0-105 47.103-105 105h-26.25c0-72.371 58.879-131.25 131.25-131.25z"
        stroke-width="5.25" />
    </symbol>
  </defs>
</svg>