<?xml version="1.0" encoding="UTF-8" standalone="no"?>
<!-- Created with Inkscape (http://www.inkscape.org/) -->

<svg
   width="512"
   height="512"
   viewBox="0 0 512 512"
   version="1.1"
   id="svg5"
   inkscape:version="1.2.2 (732a01da63, 2022-12-09)"
   sodipodi:docname="icons.svg"
   xml:space="preserve"
   xmlns:inkscape="http://www.inkscape.org/namespaces/inkscape"
   xmlns:sodipodi="http://sodipodi.sourceforge.net/DTD/sodipodi-0.dtd"
   xmlns:xlink="http://www.w3.org/1999/xlink"
   xmlns="http://www.w3.org/2000/svg"
   xmlns:svg="http://www.w3.org/2000/svg"
   xmlns:rdf="http://www.w3.org/1999/02/22-rdf-syntax-ns#"
   xmlns:cc="http://creativecommons.org/ns#"
   xmlns:dc="http://purl.org/dc/elements/1.1/"><title
     id="title1253">Mine Cells Icons</title><sodipodi:namedview
     id="namedview7"
     pagecolor="#505050"
     bordercolor="#ffffff"
     borderopacity="1"
     inkscape:showpageshadow="0"
     inkscape:pageopacity="0"
     inkscape:pagecheckerboard="1"
     inkscape:deskcolor="#505050"
     inkscape:document-units="px"
     showgrid="false"
     inkscape:zoom="1.2578125"
     inkscape:cx="255.60248"
     inkscape:cy="256"
     inkscape:window-width="1600"
     inkscape:window-height="847"
     inkscape:window-x="-8"
     inkscape:window-y="-8"
     inkscape:window-maximized="1"
     inkscape:current-layer="layer1"
     showguides="true"><sodipodi:guide
       position="575.60248,461.91304"
       orientation="0,-1"
       id="guide289"
       inkscape:locked="false" /><sodipodi:guide
       position="1190,40"
       orientation="0,-1"
       id="guide291"
       inkscape:locked="false" /><inkscape:grid
       type="xygrid"
       id="grid1459" /></sodipodi:namedview><defs
     id="defs2"><symbol
       id="text287"
       style="font-weight:bold;font-size:579.194px;font-family:'Fira Code';-inkscape-font-specification:'Fira Code, Bold';stroke-width:48.2661"><g
         aria-label="1"
         transform="scale(0.97652913,1.024035)"
         id="text287_transform"><path
           d="m 408.58508,384.83971 v 70.98838 H 140.96776 v -70.98838 h 99.20553 V 136.52885 l -84.65143,52.87002 -39.80102,-64.45389 132.76908,-80.790138 h 83.16632 V 384.83971 Z"
           id="path701" /></g></symbol><symbol
       id="text287-4"
       style="font-weight:bold;font-size:579.194px;font-family:'Fira Code';-inkscape-font-specification:'Fira Code, Bold';stroke-width:48.2661"><g
         aria-label="2"
         transform="scale(0.97652913,1.024035)"
         id="text287-4_transform"><path
           d="m 256.65804,38.956929 q 46.92956,0 78.41395,16.33624 31.78141,16.33624 47.52361,43.365292 16.03922,26.732029 16.03922,58.216419 0,24.94989 -8.61366,49.00872 -8.31663,23.76181 -27.62309,50.49383 -19.30647,26.43501 -51.38491,58.81047 -31.78141,32.37546 -78.71097,74.25564 h 175.83735 l -10.09877,71.58243 H 124.483 v -66.53305 q 50.79086,-49.00872 84.94845,-84.3544 34.45462,-35.34569 54.94917,-60.88963 20.79158,-25.84096 29.70226,-45.74147 8.91068,-19.90051 8.91068,-38.31591 0,-24.94989 -14.55411,-39.504 -14.25708,-14.5541 -40.69209,-14.5541 -23.46478,0 -40.69209,9.80174 -17.22731,9.80175 -33.26652,31.78142 l -57.62238,-43.3653 Q 139.33413,77.272838 173.1947,58.263395 207.05527,38.956929 256.65804,38.956929 Z"
           id="path715" /></g></symbol><symbol
       id="text287-41"
       style="font-weight:bold;font-size:579.194px;font-family:'Fira Code';-inkscape-font-specification:'Fira Code, Bold';stroke-width:48.2661"><g
         aria-label="3"
         transform="scale(0.97652913,1.024035)"
         id="text287-41_transform"><path
           d="m 260.96487,33.907551 q 44.55338,0 75.74075,14.554105 31.48439,14.257083 47.82063,38.315909 16.63326,23.761805 16.63326,52.572995 0,39.20697 -23.16775,63.56282 -22.87074,24.05883 -60.88963,35.04866 42.47423,5.64343 69.8003,29.10821 27.32608,23.16776 27.32608,73.06755 0,34.75164 -19.30647,63.2658 -19.00944,28.51417 -54.65215,45.74147 -35.6427,16.93029 -85.24547,16.93029 -46.03849,0 -82.57227,-16.03922 -36.53377,-16.33624 -62.37473,-45.74147 l 52.87001,-49.30574 q 17.82135,20.49455 39.504,29.99927 21.97967,9.2077 46.33552,9.2077 30.59332,0 49.89979,-15.44517 19.30646,-15.74219 19.30646,-45.14743 0,-32.67248 -18.4154,-46.92956 -18.11837,-14.5541 -51.3849,-14.5541 h -37.42484 l 10.69281,-64.75092 h 26.73203 q 27.32608,0 44.55338,-13.36601 17.52433,-13.36602 17.52433,-40.39507 0,-23.16776 -16.63326,-36.53377 -16.63326,-13.36602 -43.06827,-13.36602 -24.65287,0 -44.8504,9.50472 -19.90051,9.50472 -37.42484,26.13799 L 120.17618,89.450768 q 28.21715,-27.326074 63.26581,-41.286134 35.04866,-14.257083 77.52288,-14.257083 z"
           id="path734" /></g></symbol><symbol
       id="text287-5"
       style="font-weight:bold;font-size:579.194px;font-family:'Fira Code';-inkscape-font-specification:'Fira Code, Bold';stroke-width:48.2661"><g
         aria-label="4"
         transform="scale(0.97652913,1.024035)"
         id="text287-5_transform"><path
           d="m 372.0513,204.99253 v 99.20553 h 41.28614 v 70.39435 H 372.0513 v 86.43356 h -89.99783 l -0.59404,-86.43356 H 110.96848 V 312.21767 L 225.32217,38.956929 305.22123,68.362161 207.79784,304.19806 h 73.95861 l 10.98983,-99.20553 z"
           id="path758" /></g></symbol><symbol
       id="text287-0"
       style="font-weight:bold;font-size:579.194px;font-family:'Fira Code';-inkscape-font-specification:'Fira Code, Bold';stroke-width:48.2661"><g
         aria-label="5"
         transform="scale(0.97652913,1.024035)"
         id="text287-0_transform"><path
           d="M 395.81311,39.105434 385.41732,106.23253 H 234.82689 v 88.80974 q 15.14815,-7.12854 31.18736,-10.09876 16.03922,-2.97023 29.70226,-2.97023 31.78141,0 57.9194,16.03922 26.435,16.03922 41.88018,46.03849 15.74219,29.99928 15.74219,71.58244 0,41.58315 -20.49456,74.55266 -20.19753,32.9695 -56.43428,51.97894 -36.23675,18.71242 -84.65143,18.71242 -44.8504,0 -79.30502,-16.63326 -34.45461,-16.93028 -57.32535,-44.8504 l 54.05811,-49.30575 q 14.85112,19.00945 34.15759,29.10821 19.60349,9.80175 40.98911,9.80175 32.67248,0 52.27597,-19.90051 19.90051,-19.90052 19.90051,-51.97895 0,-38.01889 -15.44517,-54.0581 -15.14815,-16.33624 -40.09805,-16.33624 -11.28685,0 -24.05882,2.97022 -12.77197,2.97023 -26.43501,10.69281 h -63.2658 V 39.105434 Z"
           id="path787" /></g></symbol><symbol
       id="text287-2"
       style="font-weight:bold;font-size:579.194px;font-family:'Fira Code';-inkscape-font-specification:'Fira Code, Bold';stroke-width:48.2661"><g
         aria-label="6"
         transform="scale(0.97652913,1.024035)"
         id="text287-2_transform"><path
           d="m 290.96415,33.907551 q 27.32607,0 49.60276,7.128542 22.57372,7.128541 39.80103,19.306465 l -35.64271,57.028332 q -11.8809,-8.61366 -25.54394,-12.47495 -13.36601,-4.15832 -26.43501,-4.15832 -33.56354,0 -56.43428,29.99928 -22.57371,29.99928 -26.13798,86.73059 18.41539,-19.30647 41.28613,-28.21715 23.16776,-9.20769 45.14743,-9.20769 32.07843,0 58.21642,16.03921 26.13798,15.7422 41.58315,46.33552 15.44518,30.2963 15.44518,73.95862 0,41.28613 -17.82136,75.44372 -17.82135,33.86057 -50.79085,54.05811 -32.67248,20.19753 -77.52289,20.19753 -40.98911,0 -70.09732,-15.44517 -29.10821,-15.7422 -47.52361,-42.77125 -18.41539,-27.32607 -27.02905,-62.67176 -8.61365,-35.6427 -8.61365,-75.44372 0,-69.50328 21.38562,-122.67032 21.68265,-53.167034 61.48367,-83.166311 40.09804,-29.999278 95.64126,-29.999278 z M 272.25173,244.79356 q -34.75164,0 -62.07771,31.48439 0.89106,61.78069 13.06899,92.37401 12.17792,30.2963 43.66231,30.2963 26.43501,0 38.61293,-22.57371 12.47495,-22.57371 12.47495,-54.65215 0,-42.1772 -12.17792,-59.40451 -11.88091,-17.52433 -33.56355,-17.52433 z"
           id="path821" /></g></symbol><symbol
       id="text287-21"
       style="font-weight:bold;font-size:579.194px;font-family:'Fira Code';-inkscape-font-specification:'Fira Code, Bold';stroke-width:48.2661"><g
         aria-label="7"
         transform="scale(0.97652913,1.024035)"
         id="text287-21_transform"><path
           d="M 240.61882,460.58044 151.51206,432.95734 305.07272,110.09383 H 124.18598 V 39.402462 h 275.93395 v 63.562828 z"
           id="path860" /></g></symbol><symbol
       id="text287-1"
       style="font-weight:bold;font-size:579.194px;font-family:'Fira Code';-inkscape-font-specification:'Fira Code, Bold';stroke-width:48.2661"><g
         aria-label="8"
         transform="scale(0.97652913,1.024035)"
         id="text287-1_transform"><path
           d="m 399.08035,142.91483 q 0,28.81118 -15.44517,49.60276 -15.44517,20.79158 -48.41467,39.504 41.58315,20.79158 60.5926,49.30574 19.30646,28.21715 19.30646,62.96878 0,31.78142 -17.52433,59.70154 -17.22731,27.62309 -51.68192,44.8504 -34.1576,17.22731 -85.5425,17.22731 -50.19681,0 -84.05738,-16.63326 -33.56355,-16.63327 -50.49383,-43.66232 -16.63326,-27.32607 -16.63326,-59.10748 0,-35.34569 20.49455,-61.48367 20.49456,-26.13799 55.2462,-41.28614 -31.48439,-20.19753 -45.74148,-40.98911 -13.96006,-21.0886 -13.96006,-55.24619 0,-35.04866 18.11838,-60.592602 18.11838,-25.543939 49.00872,-39.206977 31.18737,-13.96006 70.39434,-13.96006 40.09805,0 70.69137,13.366015 30.89035,13.068992 48.11765,37.721864 17.52433,24.35585 17.52433,57.9194 z m -184.451,4.75236 q 0,21.68264 14.55411,35.93973 14.5541,13.96006 45.44445,25.54394 20.19753,-14.85113 27.62309,-29.10821 7.42557,-14.55411 7.42557,-31.78142 0,-21.97967 -11.8809,-36.23675 -11.58388,-14.257081 -35.04867,-14.257081 -22.87073,0 -35.6427,12.771971 -12.47495,12.47495 -12.47495,37.12782 z m 106.6311,196.03488 q 0,-20.49456 -8.31663,-33.26653 -8.01961,-12.77197 -25.24692,-21.97966 -17.22731,-9.50473 -45.14743,-19.30647 -18.11837,11.58388 -28.81119,29.40523 -10.69281,17.82136 -10.69281,42.47423 0,25.54394 14.85113,41.88018 15.14815,16.03921 44.8504,16.03921 30.59333,0 44.55339,-16.33624 13.96006,-16.63326 13.96006,-38.90995 z"
           id="path904" /></g></symbol><symbol
       id="symbol953"><path
         d="M 466,242.875 H 439.75 V 229.75 H 411.27925 C 407.263,205.82575 397.855,183.74425 384.34675,164.776 l 20.14425,-20.14425 -9.282,-9.282 18.564,-18.564 -18.564,-18.564 -18.564,18.564 -9.282,-9.282 -20.14425,20.14425 c -18.9735,-13.50825 -41.055,-22.91625 -64.974,-26.9325 V 72.25 h -13.125 V 46 h -26.25 V 72.25 H 229.75 v 28.47075 c -23.92425,4.01625 -46.00575,13.42425 -64.974,26.9325 l -20.14425,-20.14425 -9.282,9.282 -18.564,-18.564 -18.564,18.564 18.564,18.564 -9.282,9.282 20.14425,20.14425 c -13.50825,18.9735 -22.91625,41.055 -26.9325,64.974 H 72.25 v 13.125 H 46 v 26.25 H 72.25 V 282.25 h 28.47075 c 4.01625,23.92425 13.42425,46.00575 26.9325,64.974 l -20.14425,20.14425 9.282,9.282 -18.564,18.564 18.564,18.564 18.564,-18.564 9.282,9.282 20.14425,-20.14425 c 18.9735,13.50825 41.055,22.91625 64.974,26.9325 V 439.75 h 13.125 V 466 h 26.25 V 439.75 H 282.25 v -28.47075 c 23.92425,-4.01625 46.00575,-13.42425 64.974,-26.9325 l 20.14425,20.14425 9.282,-9.282 18.564,18.564 18.564,-18.564 -18.564,-18.564 9.282,-9.282 -20.14425,-20.14425 c 13.50825,-18.9735 22.91625,-41.055 26.9325,-64.974 H 439.75 v -13.125 H 466 Z M 256,124.75 V 151 c -57.897,0 -105,47.103 -105,105 h -26.25 c 0,-72.37125 58.87875,-131.25 131.25,-131.25 z"
         stroke="none"
         id="path598"
         style="stroke-width:5.25" /></symbol><symbol
       id="g666"><path
         sodipodi:type="star"
         style="fill:#000000"
         id="path659"
         inkscape:flatsided="false"
         sodipodi:sides="3"
         sodipodi:cx="-312"
         sodipodi:cy="82"
         sodipodi:r1="300.42636"
         sodipodi:r2="150.21318"
         sodipodi:arg1="0"
         sodipodi:arg2="1.0471976"
         inkscape:rounded="0"
         inkscape:randomized="0"
         d="m -11.573639,82 -225.319781,130.08843 -225.31976,130.08843 0,-260.176867 0,-260.176853 225.31978,130.088433 z"
         inkscape:transform-center-x="-46.652595"
         transform="matrix(0.62115175,0,0,0.34659832,390.89135,135.57894)" /><rect
         style="fill:#000000"
         id="rect661"
         width="46"
         height="426"
         x="58"
         y="48" /></symbol><symbol
       id="symbol1353"><path
         id="rect1350"
         style="stroke-width:1.0039"
         d="M 0.79503107,0 H 512.77019 V 512 H 0.79503107 Z" /></symbol></defs><g
     inkscape:label="Layer 1"
     inkscape:groupmode="layer"
     id="layer1"><use
       xlink:href="#text287"
       id="use708" /><use
       xlink:href="#text287-4"
       id="use722" /><use
       xlink:href="#text287-41"
       id="use741" /><use
       xlink:href="#text287-5"
       id="use765" /><use
       xlink:href="#text287-0"
       id="use794" /><use
       xlink:href="#text287-2"
       id="use828" /><use
       xlink:href="#text287-21"
       id="use867" /><use
       xlink:href="#text287-1"
       id="use911" /><use
       xlink:href="#symbol953"
       id="use956" /><use
       xlink:href="#g666"
       id="use1005"
       transform="translate(35.148818,-5)" /><use
       xlink:href="#symbol1353"
       id="use1356" /><rect
       style="fill:#ffffff"
       id="rect1461"
       width="53.267082"
       height="512"
       x="0"
       y="0" /><rect
       style="fill:#ffffff"
       id="rect1517"
       width="512.79504"
       height="52.47205"
       x="-1.5900621"
       y="-0.79503107" /></g><metadata
     id="metadata1055"><rdf:RDF><cc:Work
         rdf:about=""><dc:title>Mine Cells Icons</dc:title><dc:date>2022-12-27</dc:date><dc:creator><cc:Agent><dc:title>Paul Sáenz Sucre</dc:title></cc:Agent></dc:creator><dc:rights><cc:Agent><dc:title>MIT</dc:title></cc:Agent></dc:rights><dc:language>English</dc:language></cc:Work></rdf:RDF></metadata></svg>
